<?xml version="1.0" encoding="UTF-8" ?>
<!DOCTYPE svg PUBLIC "-//W3C//DTD SVG 1.1//EN" "http://www.w3.org/Graphics/SVG/1.1/DTD/svg11.dtd">
<svg width="1422pt" height="307pt" viewBox="0 0 1422 307" version="1.1" xmlns="http://www.w3.org/2000/svg">
<g id="#6c3f21ff">
<path fill="#6c3f21" opacity="1.00" d=" M 136.05 3.20 C 136.69 3.25 137.95 3.35 138.59 3.40 C 142.30 11.16 146.23 18.81 149.97 26.56 C 148.08 26.60 146.18 26.64 144.29 26.70 C 143.10 24.48 141.89 22.28 140.69 20.07 C 138.33 20.26 135.97 20.45 133.60 20.63 C 132.89 22.96 132.20 25.31 131.51 27.65 C 130.39 27.80 129.26 27.95 128.14 28.10 C 130.74 19.79 133.11 11.40 136.05 3.20 M 136.30 10.75 C 135.67 13.22 135.05 15.69 134.44 18.17 C 136.34 18.05 138.24 17.92 140.14 17.79 C 138.85 15.45 137.57 13.10 136.30 10.75 Z" />
<path fill="#6c3f21" opacity="1.00" d=" M 155.10 2.96 C 159.78 3.18 164.55 3.01 169.12 4.16 C 172.20 4.93 175.18 7.04 176.04 10.23 C 177.58 15.96 175.71 23.36 169.90 25.93 C 164.73 28.05 159.02 26.61 153.67 26.12 C 154.10 18.39 154.80 10.69 155.10 2.96 M 160.79 5.17 C 159.68 11.78 159.27 18.49 159.28 25.19 C 161.80 24.81 164.43 24.71 166.80 23.68 C 169.53 22.14 170.56 18.83 170.92 15.90 C 171.27 12.78 170.68 8.99 167.83 7.17 C 165.64 6.05 163.16 5.70 160.79 5.17 Z" />
<path fill="#6c3f21" opacity="1.00" d=" M 476.33 4.17 C 477.33 4.23 478.34 4.30 479.35 4.36 C 482.42 12.20 485.92 19.86 488.98 27.70 C 487.02 27.76 485.07 27.82 483.12 27.89 C 482.25 25.63 481.39 23.36 480.54 21.09 C 477.86 21.09 475.19 21.11 472.52 21.15 C 471.86 23.34 471.20 25.54 470.56 27.74 C 469.37 27.88 468.18 28.02 467.00 28.16 C 469.85 20.07 473.12 12.13 476.33 4.17 M 473.90 18.66 C 475.88 18.66 477.86 18.65 479.85 18.65 C 478.70 16.12 477.59 13.57 476.50 11.01 C 475.63 13.56 474.76 16.11 473.90 18.66 Z" />
<path fill="#6c3f21" opacity="1.00" d=" M 491.25 4.26 C 496.72 4.38 502.41 3.50 507.69 5.27 C 516.16 9.05 515.11 23.64 506.44 26.59 C 501.57 28.28 496.32 27.70 491.26 27.79 C 491.26 19.95 491.27 12.10 491.25 4.26 M 496.75 6.27 C 496.44 12.76 496.44 19.25 496.76 25.74 C 499.24 25.34 501.82 25.19 504.16 24.19 C 506.79 22.42 507.42 18.94 507.54 15.99 C 507.54 13.21 507.13 9.99 504.89 8.06 C 502.42 6.69 499.47 6.73 496.75 6.27 Z" />
<path fill="#6c3f21" opacity="1.00" d=" M 1018.74 4.07 C 1029.24 5.10 1039.81 5.24 1050.31 4.09 C 1049.59 30.41 1048.17 56.70 1048.18 83.04 C 1055.80 75.18 1064.67 67.15 1075.96 65.68 C 1089.46 63.88 1103.21 71.98 1108.85 84.23 C 1112.00 91.02 1112.16 98.67 1112.28 106.02 C 1112.29 130.52 1112.23 155.01 1112.32 179.51 C 1102.04 178.52 1091.72 178.56 1081.45 179.55 C 1082.01 168.42 1082.45 157.29 1082.67 146.15 C 1083.43 131.87 1083.69 117.52 1082.39 103.26 C 1081.91 97.54 1079.30 91.88 1074.62 88.42 C 1068.94 84.00 1059.92 84.67 1055.15 90.14 C 1050.95 94.87 1049.50 101.31 1048.75 107.43 C 1047.40 120.25 1048.25 133.16 1048.34 146.02 C 1048.42 157.20 1049.01 168.37 1049.07 179.55 C 1038.99 178.57 1028.87 178.59 1018.79 179.55 C 1019.16 170.04 1019.59 160.53 1019.57 151.01 C 1019.81 125.02 1020.48 99.02 1020.36 73.02 C 1020.23 50.03 1019.75 27.04 1018.74 4.07 Z" />
<path fill="#6c3f21" opacity="1.00" d=" M 530.20 5.06 C 534.89 5.91 539.72 6.25 544.24 7.86 C 547.70 9.06 550.13 12.41 550.34 16.05 C 550.90 21.73 547.74 28.45 541.74 29.68 C 536.55 30.51 531.35 29.21 526.21 28.60 C 527.36 20.72 528.82 12.90 530.20 5.06 M 534.33 12.39 C 533.18 17.34 532.65 22.40 532.02 27.43 C 534.96 27.17 538.37 27.83 540.91 25.97 C 544.00 22.98 544.85 18.25 544.33 14.13 C 543.76 10.36 539.59 8.53 536.14 8.67 C 534.89 9.46 534.77 11.11 534.33 12.39 Z" />
<path fill="#6c3f21" opacity="1.00" d=" M 100.12 10.06 C 105.32 8.88 110.57 7.17 115.97 7.61 C 118.83 7.81 121.60 9.43 122.86 12.04 C 124.62 15.61 125.04 19.90 123.82 23.70 C 122.83 26.77 120.21 29.07 117.23 30.16 C 113.37 31.61 109.26 32.19 105.21 32.91 C 103.62 25.27 101.73 17.69 100.12 10.06 M 105.94 10.78 C 107.25 17.18 108.73 23.55 110.27 29.91 C 113.09 28.77 116.92 28.37 118.31 25.25 C 120.23 20.74 119.17 14.81 115.34 11.61 C 112.68 9.37 109.03 10.53 105.94 10.78 Z" />
<path fill="#6c3f21" opacity="1.00" d=" M 439.59 10.19 C 445.22 9.02 451.01 6.71 456.81 8.00 C 465.13 10.90 466.41 24.30 458.90 28.87 C 454.57 31.63 449.33 32.16 444.40 33.09 C 442.67 25.49 440.70 17.92 439.59 10.19 M 444.99 10.90 C 446.19 17.26 447.69 23.55 449.29 29.81 C 451.59 29.05 454.04 28.52 456.08 27.15 C 458.50 24.97 458.42 21.32 457.88 18.37 C 457.29 15.64 456.25 12.51 453.58 11.18 C 450.80 10.31 447.84 10.83 444.99 10.90 Z" />
<path fill="#6c3f21" opacity="1.00" d=" M 203.29 10.10 C 204.33 10.13 205.38 10.15 206.43 10.18 C 207.03 18.61 207.92 27.01 208.51 35.44 C 206.74 35.17 204.97 34.90 203.19 34.64 C 202.97 32.12 202.75 29.60 202.55 27.09 C 200.18 26.38 197.81 25.68 195.44 24.97 C 193.97 26.82 192.49 28.67 191.02 30.52 C 190.22 30.36 188.61 30.06 187.80 29.90 C 192.89 23.24 198.08 16.66 203.29 10.10 M 196.85 22.85 C 198.82 23.48 200.80 24.12 202.77 24.76 C 202.40 22.13 202.06 19.50 201.70 16.88 C 200.07 18.86 198.46 20.85 196.85 22.85 Z" />
<path fill="#6c3f21" opacity="1.00" d=" M 984.05 11.07 C 988.57 8.45 995.32 9.02 998.58 13.38 C 1001.26 17.66 1000.94 23.78 997.52 27.58 C 995.18 30.27 992.18 32.26 989.29 34.30 C 982.35 39.03 975.32 43.65 968.51 48.56 C 965.87 50.33 963.22 52.45 959.97 52.85 C 956.65 53.24 953.32 53.05 950.00 52.99 C 958.00 42.35 966.28 31.93 974.34 21.33 C 977.26 17.66 979.98 13.59 984.05 11.07 Z" />
<path fill="#6c3f21" opacity="1.00" d=" M 560.31 12.12 C 564.21 13.80 568.09 15.52 571.97 17.25 C 571.70 18.18 571.43 19.10 571.17 20.03 C 568.83 19.03 566.49 18.03 564.15 17.05 C 563.34 18.99 562.54 20.92 561.74 22.86 C 563.77 24.03 565.81 25.18 567.86 26.34 C 567.86 26.94 567.88 28.15 567.89 28.75 C 565.29 27.79 562.70 26.83 560.10 25.88 C 559.20 28.18 558.32 30.48 557.45 32.78 C 559.89 34.27 562.31 35.81 564.62 37.52 C 559.66 38.07 555.17 35.82 550.89 33.64 C 553.78 26.36 557.08 19.25 560.31 12.12 Z" />
<path fill="#6c3f21" opacity="1.00" d=" M 85.30 15.89 C 87.05 15.25 88.80 14.61 90.55 13.97 C 93.23 21.34 96.26 28.58 99.20 35.84 C 97.45 36.40 95.70 36.96 93.95 37.52 C 91.01 30.33 88.12 23.12 85.30 15.89 Z" />
<path fill="#6c3f21" opacity="1.00" d=" M 426.07 16.22 C 427.84 15.82 429.62 15.42 431.41 15.03 C 434.31 22.08 437.56 28.98 440.35 36.08 C 438.72 36.73 437.09 37.38 435.46 38.03 C 432.29 30.78 428.76 23.68 426.07 16.22 Z" />
<path fill="#6c3f21" opacity="1.00" d=" M 212.66 37.85 C 216.89 30.88 221.04 23.86 225.47 17.00 C 227.01 19.38 228.55 21.85 229.01 24.69 C 229.97 29.65 230.93 34.61 232.46 39.43 C 235.11 35.23 237.59 30.94 240.00 26.61 C 240.76 26.79 242.26 27.15 243.02 27.34 C 238.81 34.46 234.58 41.58 230.20 48.60 C 225.50 41.88 225.97 33.28 223.50 25.72 C 220.55 29.93 218.03 34.42 215.72 39.00 C 214.69 38.62 213.67 38.24 212.66 37.85 Z" />
<path fill="#6c3f21" opacity="1.00" d=" M 742.53 19.33 C 748.04 19.83 753.59 19.87 759.11 19.27 C 762.42 28.00 765.23 36.90 768.37 45.69 C 781.57 83.82 795.28 121.77 809.52 159.52 C 812.05 166.10 814.78 172.62 816.62 179.43 C 811.39 179.32 806.18 178.87 800.96 178.69 C 794.23 178.46 787.52 179.09 780.82 179.56 C 776.35 163.76 771.85 147.97 766.54 132.43 C 750.39 131.23 734.19 131.51 718.02 132.04 C 712.87 147.64 707.55 163.24 703.84 179.27 C 697.10 178.67 690.32 178.70 683.58 179.21 C 686.76 168.62 691.39 158.56 695.22 148.20 C 711.94 105.61 728.61 62.94 742.53 19.33 M 733.36 89.46 C 730.00 98.81 726.38 108.08 723.72 117.66 C 736.21 117.77 748.70 117.77 761.19 117.66 C 755.95 99.48 748.93 81.88 743.07 63.90 C 739.70 72.37 736.58 80.93 733.36 89.46 Z" />
<path fill="#6c3f21" opacity="1.00" d=" M 69.01 24.02 C 71.00 21.39 74.57 21.33 77.52 20.67 C 77.64 21.80 77.75 22.93 77.88 24.07 C 75.85 24.23 73.73 24.12 71.82 24.92 C 70.76 25.89 70.83 27.47 70.67 28.78 C 74.40 30.05 78.40 29.95 82.22 30.77 C 86.46 31.52 87.39 37.15 85.74 40.49 C 84.12 44.30 79.75 45.30 76.24 46.55 C 75.78 45.20 75.32 43.85 74.86 42.51 C 77.54 42.31 81.14 43.29 82.93 40.67 C 83.13 39.56 83.18 38.43 83.10 37.31 C 79.07 35.48 74.43 36.27 70.34 34.69 C 66.78 32.57 66.23 27.02 69.01 24.02 Z" />
<path fill="#6c3f21" opacity="1.00" d=" M 413.33 22.42 C 415.35 21.37 417.61 20.89 419.79 20.26 C 419.88 21.04 420.06 22.61 420.15 23.40 C 418.31 23.79 416.43 24.06 414.68 24.76 C 413.96 26.17 413.44 27.67 412.89 29.15 C 416.83 29.60 420.82 29.58 424.74 30.27 C 429.39 30.87 431.13 37.13 428.72 40.72 C 426.82 44.05 422.90 45.13 419.55 46.36 C 419.00 44.82 418.46 43.27 417.91 41.74 C 420.14 41.87 422.39 42.08 424.63 41.81 C 426.36 40.92 426.17 38.81 426.23 37.16 C 422.23 34.38 416.77 36.78 412.69 34.26 C 408.78 31.38 409.43 24.98 413.33 22.42 Z" />
<path fill="#6c3f21" opacity="1.00" d=" M 565.57 40.18 C 569.56 33.57 573.58 26.96 577.89 20.55 C 579.36 21.45 580.84 22.36 582.33 23.26 C 578.87 29.16 575.19 34.93 571.71 40.82 C 573.73 42.02 575.77 43.21 577.81 44.38 C 577.47 45.35 577.13 46.31 576.80 47.28 C 572.93 45.12 569.18 42.75 565.57 40.18 Z" />
<path fill="#6c3f21" opacity="1.00" d=" M 399.69 33.67 C 402.24 32.36 406.00 33.03 407.20 35.85 C 407.95 38.27 407.55 40.84 407.51 43.32 C 411.53 44.71 415.58 46.03 419.59 47.47 C 417.99 48.64 416.45 49.93 414.66 50.78 C 410.90 50.64 407.45 48.92 403.90 47.87 C 405.81 50.41 407.77 52.92 409.77 55.39 C 408.47 56.61 407.17 57.82 405.88 59.04 C 400.63 53.12 395.56 47.04 390.55 40.92 C 393.44 38.33 396.17 35.41 399.69 33.67 M 395.94 38.43 C 397.95 41.09 400.10 43.65 402.39 46.08 C 402.87 44.48 403.78 42.91 403.72 41.20 C 403.27 39.63 402.09 38.31 400.66 37.55 C 399.05 37.57 397.49 38.07 395.94 38.43 Z" />
<path fill="#6c3f21" opacity="1.00" d=" M 53.96 34.97 C 56.35 33.50 59.78 34.29 61.41 36.53 C 62.39 39.01 62.37 41.73 63.02 44.29 C 66.43 46.28 70.40 46.91 74.13 48.05 C 72.69 49.40 71.25 50.75 69.81 52.10 C 66.15 51.04 62.50 49.95 58.83 48.96 C 60.86 51.41 62.95 53.80 65.05 56.19 C 63.71 57.49 62.36 58.78 61.02 60.08 C 55.84 54.20 50.66 48.31 45.15 42.73 C 47.98 40.04 50.56 36.98 53.96 34.97 M 50.47 39.68 C 52.61 42.42 54.89 45.04 57.35 47.49 C 57.84 45.81 58.52 44.15 58.54 42.39 C 58.09 41.01 57.05 39.84 55.76 39.19 C 54.00 38.71 52.21 39.44 50.47 39.68 Z" />
<path fill="#6c3f21" opacity="1.00" d=" M 252.85 42.72 C 256.22 41.15 259.22 38.59 262.97 37.96 C 265.37 37.40 266.87 39.67 268.74 40.67 C 265.79 40.84 262.83 40.92 259.88 40.98 C 257.94 49.79 252.99 57.50 250.21 66.03 C 248.78 64.73 247.35 63.43 245.93 62.13 C 246.85 59.71 247.78 57.29 248.70 54.87 C 247.05 53.35 245.49 51.68 243.58 50.47 C 241.07 50.76 238.77 51.89 236.43 52.76 C 235.96 52.23 235.02 51.16 234.54 50.63 C 240.54 47.75 246.86 45.62 252.85 42.72 M 245.97 48.49 C 247.25 50.00 248.54 51.51 249.83 53.01 C 250.88 50.67 251.98 48.35 253.03 46.01 C 250.67 46.82 248.32 47.67 245.97 48.49 Z" />
<path fill="#6c3f21" opacity="1.00" d=" M 585.66 53.75 C 592.61 49.30 599.41 44.58 606.70 40.68 C 606.93 47.35 603.34 53.14 601.02 59.15 C 607.45 57.84 613.82 55.33 620.49 56.47 C 615.34 62.84 609.65 68.74 604.08 74.74 C 602.75 73.43 601.43 72.13 600.10 70.82 C 603.59 67.34 606.95 63.74 610.07 59.93 C 604.58 61.12 599.18 62.65 593.72 63.95 C 595.36 58.75 597.47 53.73 599.28 48.59 C 595.19 50.92 591.30 53.58 587.43 56.24 C 586.99 55.62 586.10 54.38 585.66 53.75 Z" />
<path fill="#6c3f21" opacity="1.00" d=" M 377.62 56.71 C 380.15 53.17 382.89 49.78 385.77 46.52 C 386.35 46.92 387.51 47.71 388.09 48.10 C 386.47 50.15 384.86 52.22 383.26 54.29 C 384.84 55.51 386.37 56.80 388.10 57.81 C 390.00 56.42 391.62 54.70 393.32 53.08 C 393.79 53.34 394.73 53.87 395.21 54.13 C 393.77 56.17 392.33 58.21 390.88 60.24 C 392.89 61.93 394.89 63.61 396.92 65.28 C 398.58 63.24 400.22 61.18 401.86 59.13 C 402.58 59.81 403.29 60.48 404.02 61.16 C 401.37 64.62 398.65 68.03 395.86 71.37 C 389.61 66.69 383.69 61.61 377.62 56.71 Z" />
<path fill="#6c3f21" opacity="1.00" d=" M 30.85 60.25 C 33.52 56.81 36.18 53.35 38.83 49.89 C 39.42 50.23 40.59 50.90 41.17 51.24 C 39.71 53.45 38.23 55.65 36.78 57.86 C 38.42 59.06 40.05 60.27 41.69 61.47 C 43.66 59.31 45.68 56.37 49.00 56.66 C 47.62 59.06 46.05 61.34 44.88 63.85 C 46.64 65.60 48.69 67.00 50.69 68.46 C 52.37 66.31 54.03 64.15 55.70 62.00 C 56.15 62.56 57.05 63.67 57.50 64.23 C 54.98 67.68 52.41 71.11 49.81 74.51 C 43.45 69.80 37.11 65.08 30.85 60.25 Z" />
<path fill="#6c3f21" opacity="1.00" d=" M 252.78 69.25 C 259.58 65.40 266.32 61.45 272.88 57.21 C 273.71 58.82 274.55 60.44 275.40 62.06 C 272.84 63.73 270.28 65.39 267.74 67.10 C 269.41 69.76 271.08 72.42 272.76 75.08 C 275.79 73.54 278.83 72.03 281.96 70.71 C 282.16 72.36 282.45 74.00 282.54 75.67 C 276.56 80.20 269.66 83.38 263.31 87.37 C 262.39 85.84 261.47 84.32 260.55 82.81 C 263.77 80.86 266.98 78.88 270.16 76.86 C 268.49 74.08 266.83 71.30 265.14 68.54 C 261.82 70.41 258.53 72.33 255.22 74.19 C 254.40 72.55 253.59 70.90 252.78 69.25 Z" />
<path fill="#6c3f21" opacity="1.00" d=" M 372.48 61.61 C 378.97 67.42 383.79 74.77 389.64 81.18 C 389.35 82.05 389.06 82.92 388.77 83.79 C 380.21 82.92 371.66 81.87 363.09 81.01 C 364.08 79.29 365.07 77.55 366.05 75.82 C 371.72 76.55 377.39 77.27 383.07 77.86 C 380.27 74.05 376.92 70.70 374.00 66.99 C 372.74 65.50 372.91 63.41 372.48 61.61 Z" />
<path fill="#6c3f21" opacity="1.00" d=" M 868.89 67.95 C 878.81 63.85 891.07 64.66 899.78 71.21 C 904.77 74.90 909.14 79.69 911.43 85.53 C 914.02 92.01 914.22 99.12 914.30 106.01 C 914.28 114.67 914.36 123.32 914.11 131.98 C 913.64 147.82 914.66 163.67 914.19 179.51 C 903.84 178.65 893.42 178.28 883.13 179.90 C 883.33 171.27 884.36 162.69 884.58 154.06 C 884.82 144.38 885.06 134.69 885.01 125.00 C 884.96 117.53 885.35 109.99 884.10 102.59 C 883.26 97.91 881.67 93.15 878.39 89.60 C 874.43 85.32 867.78 84.57 862.48 86.46 C 858.30 87.93 855.31 91.59 853.61 95.56 C 850.55 102.60 850.14 110.41 850.00 117.99 C 849.78 138.51 850.75 159.03 851.02 179.55 C 846.67 179.32 842.33 178.91 837.98 178.77 C 832.18 178.58 826.41 179.24 820.63 179.56 C 821.64 163.39 821.22 147.17 821.67 130.98 C 821.80 121.99 821.69 112.99 821.73 104.00 C 821.84 92.04 820.81 80.12 820.63 68.17 C 830.37 68.98 840.17 69.16 849.92 68.18 C 849.64 73.47 849.47 78.76 849.29 84.05 C 854.94 77.75 860.91 71.28 868.89 67.95 Z" />
<path fill="#6c3f21" opacity="1.00" d=" M 932.99 76.00 C 942.15 69.96 952.91 66.10 963.94 65.95 C 973.41 65.69 983.21 67.56 991.23 72.80 C 998.35 77.46 1003.28 85.41 1003.83 93.95 C 1005.22 115.31 1003.15 136.71 1003.78 158.08 C 1004.03 161.96 1004.72 166.45 1008.01 168.98 C 1010.54 170.33 1013.51 170.35 1016.29 170.85 C 1015.73 173.24 1016.23 176.53 1013.52 177.69 C 1005.28 182.34 994.24 184.52 985.84 179.10 C 981.37 176.27 978.74 171.52 976.13 167.08 C 973.07 171.01 969.90 175.01 965.66 177.72 C 957.22 183.36 946.04 183.82 936.68 180.35 C 928.32 177.22 922.01 169.54 920.30 160.81 C 918.44 151.44 919.44 141.01 925.02 133.01 C 929.04 127.15 935.51 123.59 942.01 121.10 C 950.28 117.89 959.17 116.64 967.44 113.42 C 970.68 112.06 974.41 110.18 975.34 106.45 C 977.42 98.24 973.20 89.23 965.90 85.11 C 959.58 81.32 951.58 82.12 945.05 84.92 C 939.04 87.39 934.40 92.05 929.53 96.18 C 928.51 91.33 926.65 86.41 927.28 81.40 C 928.58 79.07 930.86 77.51 932.99 76.00 M 957.66 128.63 C 952.03 131.98 949.44 138.61 949.08 144.90 C 948.70 151.08 948.87 157.99 952.83 163.11 C 957.38 168.48 966.70 167.08 970.77 161.78 C 975.08 156.21 975.70 148.85 975.76 142.05 C 975.73 134.76 975.78 127.46 976.06 120.17 C 970.05 123.26 963.51 125.24 957.66 128.63 Z" />
<path fill="#6c3f21" opacity="1.00" d=" M 1235.99 76.01 C 1245.43 69.77 1256.60 65.89 1267.98 65.94 C 1277.11 65.78 1286.48 67.81 1294.22 72.80 C 1300.85 77.05 1305.58 84.21 1306.65 92.04 C 1307.56 98.65 1307.23 105.35 1307.29 112.00 C 1307.40 127.02 1306.31 142.03 1306.77 157.05 C 1307.02 161.24 1307.60 166.09 1311.02 168.98 C 1313.55 170.30 1316.50 170.35 1319.28 170.85 C 1318.73 173.24 1319.23 176.53 1316.53 177.69 C 1308.68 182.12 1298.41 184.31 1290.10 179.84 C 1284.91 177.14 1281.95 171.87 1279.21 166.95 C 1276.16 170.93 1272.97 174.96 1268.71 177.71 C 1260.47 183.25 1249.60 183.76 1240.38 180.61 C 1231.95 177.71 1225.41 170.25 1223.51 161.57 C 1220.76 149.81 1223.12 135.80 1232.85 127.82 C 1243.00 119.77 1256.26 118.17 1268.22 114.25 C 1271.95 112.82 1276.48 111.29 1278.11 107.27 C 1280.62 99.14 1276.73 89.80 1269.50 85.47 C 1263.11 81.31 1254.79 82.01 1248.05 84.92 C 1242.05 87.39 1237.43 92.07 1232.55 96.17 C 1231.47 91.35 1229.68 86.47 1230.23 81.46 C 1231.55 79.12 1233.83 77.53 1235.99 76.01 M 1265.35 126.20 C 1261.57 127.85 1257.77 130.02 1255.58 133.63 C 1252.03 139.37 1251.59 146.44 1252.21 153.00 C 1252.73 157.44 1254.14 162.40 1258.11 164.97 C 1263.39 168.03 1270.75 166.17 1274.24 161.24 C 1278.22 155.73 1278.70 148.63 1278.76 142.05 C 1278.72 134.87 1278.91 127.69 1278.98 120.51 C 1274.44 122.42 1269.86 124.24 1265.35 126.20 Z" />
<path fill="#6c3f21" opacity="1.00" d=" M 1337.54 79.55 C 1347.17 70.17 1360.71 65.54 1374.01 65.49 C 1387.19 65.15 1400.47 68.67 1411.49 75.98 C 1409.64 81.90 1407.71 87.78 1405.83 93.68 C 1405.14 95.67 1404.53 97.72 1403.38 99.49 C 1401.78 99.94 1400.15 100.18 1398.55 100.48 C 1397.08 94.32 1395.43 87.81 1390.89 83.12 C 1385.80 77.48 1377.20 75.56 1370.16 78.35 C 1364.52 80.60 1360.58 85.69 1358.04 91.03 C 1353.51 100.66 1351.98 111.43 1351.96 121.99 C 1351.94 130.86 1352.26 140.01 1355.76 148.29 C 1358.49 154.90 1362.95 161.25 1369.59 164.37 C 1377.32 167.94 1386.75 168.28 1394.45 164.38 C 1398.41 162.43 1401.72 159.45 1405.01 156.54 C 1406.13 157.44 1407.27 158.35 1408.43 159.25 C 1407.10 163.56 1406.01 167.98 1403.95 172.02 C 1402.63 174.67 1399.97 176.27 1397.38 177.46 C 1385.16 182.91 1371.17 183.51 1358.21 180.59 C 1350.48 178.79 1342.96 175.37 1337.23 169.78 C 1329.62 162.30 1324.35 152.57 1321.85 142.23 C 1319.68 133.15 1319.61 123.66 1320.76 114.42 C 1322.51 101.46 1327.88 88.60 1337.54 79.55 Z" />
<path fill="#6c3f21" opacity="1.00" d=" M 26.32 67.62 C 32.36 74.14 38.55 80.54 44.11 87.48 C 41.47 88.14 38.80 89.00 36.04 88.69 C 29.53 88.18 23.02 87.56 16.51 86.94 C 17.66 85.19 18.78 83.39 20.25 81.89 C 25.69 81.84 31.07 82.90 36.51 83.02 C 32.92 78.52 28.96 74.33 24.97 70.18 C 25.31 69.54 25.98 68.26 26.32 67.62 Z" />
<path fill="#6c3f21" opacity="1.00" d=" M 1123.19 68.17 C 1133.57 68.94 1143.98 69.16 1154.36 68.20 C 1153.15 83.11 1152.54 98.08 1152.54 113.05 C 1152.53 122.85 1151.76 132.69 1152.84 142.46 C 1153.47 148.26 1155.50 154.14 1159.71 158.33 C 1164.82 163.64 1174.23 163.58 1179.46 158.47 C 1183.14 154.93 1184.92 149.94 1185.99 145.06 C 1187.93 135.50 1187.39 125.69 1187.45 116.00 C 1187.50 100.06 1186.47 84.13 1186.60 68.19 C 1196.63 69.01 1206.72 69.16 1216.75 68.08 C 1215.68 93.37 1215.72 118.69 1215.72 144.00 C 1215.46 155.87 1216.59 167.71 1216.56 179.57 C 1206.93 178.72 1197.26 178.40 1187.63 179.47 C 1187.73 174.23 1187.90 168.99 1187.94 163.75 C 1181.91 170.17 1176.07 177.62 1167.31 180.33 C 1156.79 183.46 1144.66 181.89 1135.79 175.22 C 1130.27 171.14 1126.43 164.99 1124.81 158.35 C 1122.96 151.05 1123.25 143.46 1123.26 136.00 C 1123.34 121.66 1123.16 107.32 1123.34 92.98 C 1123.57 84.71 1123.32 76.44 1123.19 68.17 Z" />
<path fill="#6c3f21" opacity="1.00" d=" M 604.09 76.06 C 612.76 75.42 621.39 73.36 630.11 74.06 C 629.61 76.55 628.31 78.75 626.62 80.61 C 622.26 85.65 617.98 90.75 613.85 95.98 C 612.96 94.05 612.06 92.13 611.17 90.21 C 612.74 88.42 614.29 86.61 615.86 84.82 C 614.79 82.61 613.72 80.40 612.67 78.19 C 609.84 78.35 607.01 78.51 604.18 78.67 C 604.16 78.02 604.11 76.71 604.09 76.06 M 614.87 77.38 C 615.87 79.13 616.88 80.87 617.90 82.61 C 619.42 80.81 620.94 79.01 622.44 77.19 C 619.91 77.24 617.39 77.32 614.87 77.38 Z" />
<path fill="#6c3f21" opacity="1.00" d=" M 274.15 91.28 C 278.91 89.46 283.90 88.31 288.83 87.04 C 289.17 88.88 289.51 90.72 289.85 92.56 C 284.81 93.74 279.65 94.70 274.94 96.93 C 273.24 97.80 271.23 99.03 271.16 101.18 C 270.77 103.98 271.97 107.70 275.24 108.01 C 281.66 108.50 287.65 105.47 293.73 103.86 C 294.12 104.90 294.51 105.94 294.90 106.99 C 288.97 108.49 283.17 110.81 277.02 111.20 C 274.31 111.45 271.65 110.08 270.21 107.80 C 268.09 104.53 267.32 100.31 268.33 96.53 C 269.05 93.78 271.67 92.22 274.15 91.28 Z" />
<path fill="#6c3f21" opacity="1.00" d=" M 361.24 87.15 C 368.67 89.56 376.08 92.03 383.36 94.86 C 382.97 96.50 382.60 98.14 382.24 99.79 C 374.62 97.58 367.15 94.89 359.75 92.05 C 360.25 90.42 360.75 88.78 361.24 87.15 Z" />
<path fill="#6c3f21" opacity="1.00" d=" M 625.60 96.57 C 628.99 93.69 632.09 90.48 635.57 87.68 C 636.04 89.68 636.52 91.68 636.99 93.69 C 634.24 96.18 631.56 98.74 628.94 101.36 C 632.58 101.97 636.22 102.57 639.87 103.12 C 639.99 103.94 640.21 105.58 640.32 106.40 C 636.63 105.49 632.99 104.38 629.22 103.85 C 624.70 103.19 620.30 104.83 615.98 105.88 C 615.69 104.18 615.41 102.49 615.14 100.79 C 618.74 99.76 622.65 99.07 625.60 96.57 Z" />
<path fill="#6c3f21" opacity="1.00" d=" M 14.24 94.99 C 21.74 97.17 29.14 99.71 36.75 101.50 C 36.44 103.32 36.11 105.13 35.79 106.95 C 28.17 105.10 20.76 102.46 13.16 100.55 C 13.51 98.70 13.87 96.84 14.24 94.99 Z" />
<path fill="#6c3f21" opacity="1.00" d=" M 357.30 99.72 C 365.28 100.99 373.27 102.34 381.05 104.55 C 376.09 111.10 367.92 113.59 361.62 118.53 C 366.93 120.07 372.39 120.91 377.76 122.20 C 376.33 122.99 374.96 124.34 373.18 124.05 C 366.48 123.30 359.95 121.49 353.30 120.44 C 353.32 119.39 353.34 118.33 353.36 117.28 C 359.43 113.11 365.76 109.34 372.00 105.44 C 366.75 104.55 361.52 103.62 356.27 102.78 C 356.61 101.76 356.95 100.74 357.30 99.72 Z" />
<path fill="#6c3f21" opacity="1.00" d=" M 81.18 131.19 C 91.82 121.98 102.28 112.55 113.02 103.46 C 115.98 106.51 118.85 109.65 121.62 112.88 C 104.26 128.82 86.45 144.29 68.89 160.01 C 65.91 156.70 63.03 153.31 60.24 149.84 C 66.93 143.31 74.21 137.42 81.18 131.19 Z" />
<path fill="#6c3f21" opacity="1.00" d=" M 10.80 109.92 C 18.44 111.36 26.11 112.63 33.78 113.92 C 32.60 115.93 31.42 118.08 29.35 119.32 C 24.54 122.44 19.62 125.39 15.01 128.80 C 20.08 129.68 25.16 130.46 30.27 131.12 C 30.28 131.92 30.31 133.53 30.32 134.33 C 22.61 133.05 14.95 131.49 7.21 130.42 C 7.27 129.39 7.33 128.37 7.39 127.34 C 13.34 123.32 19.48 119.56 25.22 115.24 C 20.18 114.32 15.11 113.58 10.03 112.94 C 10.29 111.93 10.54 110.92 10.80 109.92 Z" />
<path fill="#6c3f21" opacity="1.00" d=" M 617.92 110.89 C 624.14 112.84 630.41 114.60 636.65 116.47 C 639.25 117.14 641.24 119.00 643.38 120.51 C 635.65 125.17 627.41 128.90 619.31 132.87 C 619.34 130.78 619.37 128.69 619.40 126.60 C 621.45 125.71 623.49 124.81 625.54 123.91 C 625.44 121.33 625.34 118.76 625.24 116.19 C 622.84 115.41 620.45 114.64 618.07 113.86 C 618.03 113.12 617.96 111.64 617.92 110.89 M 627.52 116.57 C 627.77 118.44 628.03 120.30 628.29 122.17 C 630.57 121.26 632.86 120.34 635.15 119.42 C 632.60 118.48 630.05 117.53 627.52 116.57 Z" />
<path fill="#6c3f21" opacity="1.00" d=" M 190.41 128.38 C 196.54 123.07 202.49 117.55 208.85 112.50 C 211.78 115.60 214.64 118.75 217.42 121.98 C 207.18 131.58 196.49 140.69 186.06 150.08 C 178.82 156.36 171.93 163.04 164.44 169.02 C 161.53 165.57 158.66 162.08 155.98 158.44 C 167.50 148.47 178.92 138.39 190.41 128.38 Z" />
<path fill="#6c3f21" opacity="1.00" d=" M 105.58 135.59 C 112.39 129.73 118.96 123.60 125.91 117.90 C 128.89 121.04 131.86 124.19 134.81 127.36 C 127.81 133.85 120.51 140.01 113.41 146.38 C 102.83 155.68 92.45 165.20 81.80 174.41 C 78.72 171.08 75.78 167.61 72.95 164.07 C 83.77 154.51 94.71 145.09 105.58 135.59 Z" />
<path fill="#6c3f21" opacity="1.00" d=" M 273.09 117.95 C 281.35 120.07 289.53 122.48 297.80 124.51 C 297.75 125.54 297.70 126.58 297.65 127.62 C 290.06 131.49 282.69 135.76 275.26 139.90 C 275.25 137.83 275.25 135.76 275.26 133.70 C 277.08 132.63 278.98 131.68 280.60 130.32 C 281.09 127.79 280.85 125.19 280.71 122.64 C 278.25 122.25 275.79 121.86 273.33 121.46 C 273.24 120.29 273.17 119.12 273.09 117.95 M 282.82 123.27 C 283.04 125.23 283.26 127.18 283.48 129.14 C 285.99 127.95 288.51 126.75 291.04 125.58 C 288.29 124.82 285.56 124.05 282.82 123.27 Z" />
<path fill="#6c3f21" opacity="1.00" d=" M 200.93 144.91 C 207.91 138.92 214.61 132.61 221.76 126.83 C 224.64 129.93 227.48 133.05 230.30 136.21 C 220.41 145.70 209.85 154.49 199.72 163.73 C 192.22 170.24 185.10 177.19 177.30 183.36 C 174.42 179.98 171.58 176.58 168.82 173.12 C 179.44 163.62 190.25 154.34 200.93 144.91 Z" />
<path fill="#6c3f21" opacity="1.00" d=" M 353.65 129.64 C 358.77 129.57 363.92 129.20 369.03 129.70 C 371.36 129.94 373.92 130.60 375.33 132.64 C 377.70 136.04 377.83 140.61 376.66 144.48 C 375.76 147.51 372.91 149.63 369.81 149.96 C 364.44 150.71 359.00 150.23 353.59 150.21 C 353.59 148.39 353.59 146.57 353.60 144.76 C 358.68 144.73 363.79 145.06 368.87 144.52 C 371.03 144.31 373.49 143.47 374.28 141.22 C 375.88 137.96 373.82 133.70 370.25 132.98 C 364.81 131.76 359.18 132.31 353.66 132.24 C 353.66 131.59 353.65 130.29 353.65 129.64 Z" />
<path fill="#6c3f21" opacity="1.00" d=" M 129.27 141.26 C 132.53 138.46 135.53 135.29 139.23 133.06 C 143.06 135.01 145.48 138.75 148.22 141.92 C 130.75 157.63 113.09 173.14 95.61 188.85 C 92.59 185.59 88.97 182.59 87.29 178.36 C 90.20 174.90 93.92 172.27 97.28 169.27 C 107.95 159.94 118.63 150.62 129.27 141.26 Z" />
<path fill="#6c3f21" opacity="1.00" d=" M 619.59 134.82 C 627.40 134.66 635.21 134.66 643.03 134.81 C 643.02 138.77 643.36 142.79 642.56 146.70 C 642.08 149.95 637.82 151.72 635.13 149.98 C 634.06 148.69 633.21 147.24 632.30 145.84 C 631.19 147.60 630.10 149.43 628.54 150.84 C 625.54 151.84 621.61 150.57 620.47 147.44 C 619.06 143.39 619.59 139.02 619.59 134.82 M 621.16 140.14 C 621.74 141.51 622.40 142.85 623.17 144.14 C 624.41 145.70 626.76 145.72 628.50 145.08 C 629.72 143.62 630.61 141.91 631.56 140.26 C 628.09 140.08 624.62 140.07 621.16 140.14 M 632.28 140.23 C 633.26 141.78 634.19 143.38 635.40 144.78 C 637.03 145.01 638.69 144.96 640.34 144.97 C 640.55 143.32 640.76 141.66 640.99 140.01 C 638.08 140.05 635.18 140.11 632.28 140.23 Z" />
<path fill="#6c3f21" opacity="1.00" d=" M 6.59 140.77 C 11.70 140.90 16.83 140.68 21.91 141.27 C 24.82 141.60 28.04 142.81 29.28 145.69 C 30.81 149.32 30.68 153.62 29.22 157.25 C 28.30 159.56 26.08 161.14 23.64 161.43 C 17.88 162.21 12.04 161.65 6.24 161.70 C 6.23 159.87 6.22 158.04 6.20 156.21 C 12.02 156.30 17.95 157.07 23.70 155.84 C 27.61 155.18 28.86 150.06 27.03 146.98 C 25.90 145.28 23.76 144.76 21.88 144.43 C 16.80 143.68 11.66 144.08 6.56 144.23 C 6.57 143.36 6.58 141.63 6.59 140.77 Z" />
<path fill="#6c3f21" opacity="1.00" d=" M 281.94 141.97 C 285.17 140.85 288.82 140.88 292.05 142.01 C 295.59 143.27 298.19 146.51 299.04 150.13 C 300.02 154.12 298.99 158.21 298.26 162.15 C 297.23 161.82 296.20 161.50 295.17 161.18 C 296.00 157.99 297.98 154.31 295.97 151.17 C 293.60 147.21 288.36 146.48 284.19 147.23 C 281.14 147.69 278.27 149.95 277.75 153.10 C 277.42 155.93 278.26 158.73 278.74 161.50 C 278.03 161.36 276.61 161.09 275.91 160.96 C 275.41 157.43 274.68 153.84 275.30 150.28 C 275.94 146.65 278.38 143.21 281.94 141.97 Z" />
<path fill="#6c3f21" opacity="1.00" d=" M 202.74 169.74 C 213.59 160.31 224.33 150.74 235.25 141.38 C 238.32 144.45 241.27 147.64 244.11 150.91 C 226.51 166.66 208.90 182.39 191.18 197.99 C 188.28 194.60 185.42 191.19 182.58 187.74 C 189.00 181.41 196.02 175.75 202.74 169.74 Z" />
<path fill="#6c3f21" opacity="1.00" d=" M 15.72 168.57 C 17.90 167.60 20.64 168.00 22.46 169.53 C 25.27 171.94 25.03 176.98 21.97 179.08 C 19.49 180.67 15.74 180.35 13.83 177.99 C 11.51 175.13 12.47 170.30 15.72 168.57 Z" />
<path fill="#6c3f21" opacity="1.00" d=" M 283.63 168.53 C 285.84 167.64 288.57 168.03 290.35 169.65 C 292.72 171.91 292.74 176.12 290.44 178.44 C 288.10 180.66 283.94 180.62 281.72 178.26 C 279.00 175.48 280.04 170.05 283.63 168.53 Z" />
<path fill="#6c3f21" opacity="1.00" d=" M 314.34 168.03 C 317.01 168.62 319.69 169.20 322.36 169.83 C 322.22 173.00 322.18 176.17 322.16 179.35 C 320.79 177.68 319.42 176.01 318.05 174.34 C 319.09 173.22 320.12 172.11 321.15 170.98 C 319.61 170.65 318.06 170.32 316.52 169.99 C 316.27 173.27 315.86 176.54 315.28 179.78 C 314.35 175.92 313.86 171.99 314.34 168.03 Z" />
<path fill="#6c3f21" opacity="1.00" d=" M 661.04 167.98 C 663.48 168.58 665.93 169.21 668.37 169.85 C 668.13 173.04 668.30 176.24 669.06 179.35 C 667.17 177.69 665.23 176.08 663.28 174.50 C 662.88 175.89 662.49 177.29 662.12 178.69 C 661.67 178.71 660.78 178.76 660.34 178.78 C 660.59 175.18 660.80 171.58 661.04 167.98 M 662.23 170.20 C 662.23 170.92 662.24 172.36 662.24 173.08 C 663.51 173.15 664.78 173.23 666.07 173.31 C 666.37 172.33 666.68 171.35 667.00 170.37 C 665.40 170.31 663.81 170.25 662.23 170.20 Z" />
<path fill="#6c3f21" opacity="1.00" d=" M 361.58 169.31 C 363.62 168.46 366.18 168.52 367.95 169.96 C 370.59 172.22 370.74 176.80 368.10 179.13 C 365.90 181.29 362.12 181.22 359.90 179.15 C 356.89 176.48 357.74 170.75 361.58 169.31 Z" />
<path fill="#6c3f21" opacity="1.00" d=" M 631.53 169.23 C 633.81 168.13 636.77 168.63 638.47 170.55 C 640.89 173.10 640.31 177.71 637.42 179.65 C 634.74 181.25 630.70 180.61 629.05 177.83 C 627.24 174.96 628.27 170.56 631.53 169.23 Z" />
<path fill="#6c3f21" opacity="1.00" d=" M 13.55 199.02 C 19.84 194.59 25.77 189.54 32.74 186.16 C 31.67 188.17 30.80 190.46 28.76 191.71 C 25.03 194.37 21.12 196.80 17.58 199.73 C 24.03 200.63 30.85 199.69 36.91 202.55 C 29.29 203.10 21.75 201.62 14.15 201.30 C 14.00 200.73 13.70 199.59 13.55 199.02 Z" />
<path fill="#6c3f21" opacity="1.00" d=" M 358.63 202.55 C 364.29 196.20 372.09 192.45 378.95 187.62 C 379.25 188.22 379.85 189.41 380.15 190.01 C 375.14 192.93 370.28 196.10 365.69 199.64 C 363.67 201.31 361.14 202.03 358.63 202.55 Z" />
<path fill="#6c3f21" opacity="1.00" d=" M 271.98 189.09 C 279.27 190.28 286.49 191.90 293.75 193.23 C 293.72 193.92 293.66 195.31 293.63 196.00 C 288.96 195.08 284.28 194.19 279.55 193.66 C 283.01 197.62 286.91 201.17 290.90 204.58 C 285.75 205.20 280.62 205.96 275.56 207.11 C 279.43 209.20 283.47 210.92 287.56 212.51 C 287.66 213.11 287.85 214.30 287.94 214.89 C 281.08 211.87 274.14 208.98 267.58 205.33 C 273.71 204.19 279.89 203.40 286.07 202.60 C 281.35 198.12 276.50 193.78 271.98 189.09 Z" />
<path fill="#6c3f21" opacity="1.00" d=" M 617.76 190.25 C 625.53 191.38 633.17 193.27 640.92 194.60 C 640.64 195.53 640.37 196.46 640.11 197.40 C 635.27 196.34 630.43 195.30 625.51 194.67 C 629.39 198.73 633.74 202.28 638.09 205.81 C 632.02 206.25 625.95 206.72 619.90 207.40 C 625.35 209.74 631.28 211.38 635.79 215.44 C 627.69 213.29 620.10 209.59 612.65 205.84 C 619.19 204.95 625.77 204.38 632.32 203.52 C 627.56 198.99 622.31 195.00 617.76 190.25 Z" />
<path fill="#6c3f21" opacity="1.00" d=" M 1130.35 194.44 C 1132.96 194.46 1135.58 194.44 1138.20 194.39 C 1138.33 206.23 1138.33 218.07 1138.17 229.92 C 1141.34 227.12 1144.44 223.99 1148.50 222.52 C 1154.68 220.35 1162.09 222.87 1165.64 228.40 C 1172.76 239.05 1172.46 253.91 1165.75 264.69 C 1162.37 270.33 1155.68 274.01 1149.07 273.02 C 1144.75 272.41 1141.33 269.50 1137.98 266.96 C 1135.61 268.67 1133.25 270.39 1130.84 272.03 C 1130.14 263.70 1130.48 255.34 1130.46 247.00 C 1130.39 229.48 1130.56 211.96 1130.35 194.44 M 1147.53 227.47 C 1145.00 228.45 1143.21 230.65 1141.85 232.91 C 1138.98 237.74 1138.09 243.46 1138.03 249.00 C 1137.99 254.04 1138.69 259.26 1141.14 263.75 C 1142.42 266.15 1144.54 268.29 1147.32 268.81 C 1150.97 269.68 1154.78 267.92 1157.10 265.10 C 1161.40 260.17 1162.29 253.29 1162.28 246.98 C 1162.10 241.20 1161.27 235.05 1157.85 230.21 C 1155.60 226.98 1151.07 226.22 1147.53 227.47 Z" />
<path fill="#6c3f21" opacity="1.00" d=" M 981.06 199.27 C 981.72 199.28 983.03 199.31 983.69 199.32 C 985.12 212.86 986.33 226.42 987.48 239.98 C 988.36 250.44 989.77 260.85 990.37 271.33 C 987.44 271.30 984.53 271.29 981.62 271.28 C 979.62 253.56 978.83 235.73 977.52 217.95 C 971.09 232.73 964.78 247.57 958.46 262.40 C 957.26 265.17 955.95 267.89 954.59 270.59 C 952.42 266.90 950.54 263.06 948.97 259.09 C 945.39 250.10 941.43 241.27 937.79 232.31 C 936.06 228.07 934.24 223.88 932.22 219.78 C 930.43 236.90 929.82 254.12 928.06 271.24 C 926.02 271.24 923.99 271.25 921.96 271.25 C 923.72 252.45 926.25 233.73 928.20 214.95 C 928.73 209.92 929.36 204.89 930.03 199.87 C 930.77 199.81 932.25 199.68 932.99 199.61 C 940.75 217.56 948.42 235.56 956.42 253.41 C 965.16 235.61 972.32 217.07 981.06 199.27 Z" />
<path fill="#6c3f21" opacity="1.00" d=" M 18.59 214.07 C 25.08 211.60 31.51 208.99 37.88 206.23 C 38.26 207.12 38.64 208.02 39.02 208.91 C 32.32 211.46 25.68 214.16 19.08 216.94 C 18.96 216.22 18.71 214.79 18.59 214.07 Z" />
<path fill="#6c3f21" opacity="1.00" d=" M 264.91 212.29 C 269.07 214.74 273.45 216.85 277.41 219.62 C 279.77 221.23 281.84 223.88 281.39 226.91 C 280.97 230.65 278.21 234.99 274.03 234.89 C 269.97 234.32 266.32 232.24 262.78 230.30 C 260.51 229.09 258.96 227.00 257.32 225.10 C 263.01 226.52 267.65 230.44 273.26 232.03 C 277.86 233.40 281.89 226.86 278.73 223.33 C 274.79 219.23 269.25 217.26 264.37 214.55 C 264.55 213.79 264.73 213.04 264.91 212.29 Z" />
<path fill="#6c3f21" opacity="1.00" d=" M 608.86 213.64 C 614.33 214.46 619.10 217.40 623.58 220.46 C 625.36 221.74 627.12 223.25 627.94 225.35 C 629.53 229.44 626.94 234.66 622.65 235.72 C 620.21 236.26 617.77 235.30 615.57 234.36 C 611.34 232.38 607.41 229.86 603.32 227.63 C 603.31 226.90 603.27 225.45 603.25 224.72 C 607.46 226.75 611.49 229.13 615.64 231.30 C 617.84 232.33 620.25 233.56 622.77 233.08 C 625.63 232.28 627.78 228.63 626.18 225.88 C 624.44 222.90 621.23 221.28 618.36 219.61 C 615.05 217.86 611.84 215.92 608.86 213.64 Z" />
<path fill="#6c3f21" opacity="1.00" d=" M 368.36 227.86 C 374.18 221.98 381.81 218.48 389.07 214.74 C 386.92 221.97 383.66 228.78 380.92 235.78 C 386.01 232.65 391.04 229.30 396.70 227.25 C 390.82 233.01 383.25 236.51 376.04 240.29 C 378.44 233.30 381.81 226.70 384.19 219.71 C 378.91 222.41 373.97 225.83 368.36 227.86 Z" />
<path fill="#6c3f21" opacity="1.00" d=" M 1004.23 226.27 C 1009.51 222.09 1016.92 220.58 1023.36 222.70 C 1026.33 223.66 1028.94 225.86 1030.12 228.80 C 1031.81 232.96 1031.75 237.54 1031.79 241.95 C 1031.84 250.23 1031.24 258.54 1032.27 266.78 C 1033.82 267.92 1035.44 268.98 1037.03 270.09 C 1034.88 271.01 1032.65 272.49 1030.21 271.85 C 1027.56 271.21 1025.62 269.14 1023.57 267.50 C 1018.97 270.97 1013.31 274.42 1007.32 272.64 C 997.29 269.70 996.06 253.94 1004.69 248.66 C 1010.07 245.17 1016.81 245.26 1022.52 242.56 C 1023.88 241.97 1024.07 240.20 1024.29 238.92 C 1024.54 234.92 1022.79 230.89 1019.89 228.18 C 1017.55 225.92 1013.77 225.35 1010.93 226.97 C 1007.81 228.67 1005.29 231.23 1002.49 233.36 C 1002.93 231.02 1002.04 227.88 1004.23 226.27 M 1010.39 251.37 C 1006.41 254.10 1005.30 260.05 1007.84 264.10 C 1009.78 267.18 1013.93 268.62 1017.35 267.32 C 1020.82 265.98 1023.85 262.82 1024.16 258.99 C 1024.57 255.10 1024.27 251.19 1024.15 247.30 C 1019.45 248.10 1014.37 248.50 1010.39 251.37 Z" />
<path fill="#6c3f21" opacity="1.00" d=" M 1039.91 222.22 C 1042.87 222.24 1045.84 222.25 1048.82 222.21 C 1052.59 234.74 1056.49 247.27 1061.57 259.34 C 1066.55 247.23 1070.75 234.79 1074.18 222.16 C 1076.19 222.19 1078.21 222.21 1080.25 222.24 C 1077.10 231.91 1073.22 241.32 1069.81 250.90 C 1063.89 266.63 1058.19 282.46 1052.09 298.13 C 1050.05 298.11 1048.02 298.11 1046.00 298.11 C 1048.23 292.32 1050.47 286.52 1053.00 280.86 C 1054.19 278.07 1055.51 275.32 1056.29 272.38 C 1057.02 269.83 1055.99 267.24 1055.23 264.83 C 1050.01 250.67 1044.84 236.49 1039.91 222.22 Z" />
<path fill="#6c3f21" opacity="1.00" d=" M 1089.25 227.15 C 1093.21 224.80 1097.28 222.16 1102.02 221.81 C 1105.96 221.51 1110.24 222.07 1113.50 224.50 C 1115.92 226.31 1117.19 229.22 1117.81 232.11 C 1118.82 237.00 1118.59 242.02 1118.58 246.99 C 1118.45 253.75 1118.53 260.52 1118.77 267.29 C 1120.51 267.78 1122.25 268.29 1124.01 268.82 C 1122.40 269.98 1121.06 271.92 1118.92 271.97 C 1115.38 272.21 1112.69 269.56 1110.11 267.56 C 1106.45 270.09 1102.60 272.96 1097.96 273.06 C 1093.31 273.38 1088.60 270.63 1086.85 266.27 C 1084.59 260.67 1085.37 253.25 1090.38 249.36 C 1095.68 245.14 1102.89 245.43 1108.88 242.76 C 1110.40 242.11 1110.81 240.24 1110.99 238.76 C 1111.22 234.65 1109.26 230.56 1106.22 227.87 C 1103.76 225.66 1099.92 225.49 1097.14 227.18 C 1094.12 228.94 1091.82 231.63 1089.34 234.04 C 1089.30 231.74 1089.27 229.45 1089.25 227.15 M 1096.70 251.68 C 1093.18 254.19 1092.32 259.28 1093.90 263.14 C 1095.40 266.72 1099.75 268.64 1103.44 267.47 C 1106.87 266.41 1110.18 263.60 1110.59 259.85 C 1111.08 255.58 1110.74 251.27 1110.62 247.00 C 1105.87 248.10 1100.76 248.76 1096.70 251.68 Z" />
<path fill="#6c3f21" opacity="1.00" d=" M 39.53 244.53 C 41.51 239.03 47.73 234.87 53.61 236.42 C 57.67 237.52 59.71 241.57 61.96 244.76 C 61.61 245.37 60.90 246.59 60.55 247.21 C 59.14 244.44 58.00 241.35 55.58 239.28 C 52.51 237.22 48.55 238.81 45.95 240.91 C 42.79 243.31 40.04 247.58 41.88 251.60 C 43.47 254.30 46.42 255.76 48.80 257.66 C 46.95 257.12 44.99 256.79 43.30 255.83 C 39.97 253.28 38.02 248.60 39.53 244.53 Z" />
<path fill="#6c3f21" opacity="1.00" d=" M 248.49 236.93 C 255.05 239.28 259.76 244.65 265.49 248.37 C 267.40 246.46 269.33 244.58 271.38 242.83 C 269.67 246.12 267.59 249.20 265.31 252.13 C 261.61 248.98 257.74 246.06 253.85 243.17 C 251.55 241.57 250.00 239.22 248.49 236.93 Z" />
<path fill="#6c3f21" opacity="1.00" d=" M 593.68 236.69 C 600.77 239.24 605.63 245.28 611.74 249.40 C 613.67 247.44 615.65 245.52 617.74 243.73 C 616.43 247.23 614.46 250.43 611.91 253.17 C 605.72 247.81 598.14 243.76 593.68 236.69 Z" />
<path fill="#6c3f21" opacity="1.00" d=" M 239.17 246.89 C 246.45 250.14 253.50 253.86 260.51 257.67 C 259.89 258.05 258.66 258.79 258.04 259.17 C 255.51 258.08 253.06 256.46 250.25 256.31 C 248.52 257.23 247.07 258.57 245.54 259.76 C 246.63 262.44 247.72 265.12 248.83 267.79 C 248.35 268.52 247.87 269.25 247.40 269.98 C 244.60 262.30 241.65 254.67 239.17 246.89 M 242.93 251.70 C 243.54 253.88 244.17 256.07 244.80 258.25 C 246.26 257.00 247.72 255.76 249.19 254.53 C 247.10 253.58 245.02 252.63 242.93 251.70 Z" />
<path fill="#6c3f21" opacity="1.00" d=" M 574.16 255.60 C 579.20 261.66 583.37 268.36 587.69 274.93 C 587.07 275.20 585.83 275.75 585.21 276.03 C 582.19 271.36 579.14 266.70 576.07 262.07 C 576.51 267.90 577.08 273.73 577.36 279.58 C 572.52 276.21 567.95 272.48 563.36 268.78 C 565.91 274.22 569.03 279.53 569.79 285.60 C 565.11 278.92 562.57 271.05 559.98 263.39 C 565.18 266.92 570.01 270.95 575.25 274.42 C 575.08 268.13 574.40 261.88 574.16 255.60 Z" />
<path fill="#6c3f21" opacity="1.00" d=" M 430.33 260.23 C 431.05 260.24 432.49 260.26 433.21 260.27 C 430.79 265.11 428.29 269.91 425.66 274.64 C 424.24 277.26 422.15 279.41 419.97 281.39 C 421.74 273.61 426.76 267.22 430.33 260.23 Z" />
<path fill="#6c3f21" opacity="1.00" d=" M 83.21 260.98 C 83.94 261.07 85.39 261.25 86.12 261.34 C 83.64 266.16 81.37 271.10 78.71 275.83 C 77.59 278.06 75.36 279.33 73.32 280.59 C 76.00 273.75 80.16 267.64 83.21 260.98 Z" />
<path fill="#6c3f21" opacity="1.00" d=" M 91.56 263.85 C 94.36 270.56 96.52 277.52 99.34 284.22 C 101.35 279.37 103.07 274.41 104.61 269.39 C 105.28 269.59 105.96 269.78 106.63 269.98 C 103.88 276.72 101.51 283.60 98.71 290.31 C 95.84 283.85 93.83 277.05 90.95 270.59 C 88.96 275.71 87.46 281.13 84.09 285.58 C 85.40 277.98 89.01 271.07 91.56 263.85 Z" />
<path fill="#6c3f21" opacity="1.00" d=" M 437.59 264.29 C 438.07 264.29 439.02 264.29 439.50 264.29 C 441.29 270.97 442.95 277.69 444.96 284.32 C 447.44 278.94 449.22 273.22 452.58 268.29 C 450.97 276.22 447.65 283.68 444.66 291.15 C 442.67 288.96 442.26 285.94 441.54 283.19 C 440.45 278.40 439.12 273.67 437.73 268.96 C 435.80 274.81 433.88 280.78 430.28 285.86 C 431.66 278.34 435.16 271.48 437.59 264.29 Z" />
<path fill="#6c3f21" opacity="1.00" d=" M 535.54 270.49 C 539.81 269.12 544.91 270.81 547.23 274.71 C 549.64 278.79 550.21 284.04 548.52 288.49 C 546.31 294.53 537.43 296.50 532.84 292.05 C 529.23 288.48 528.00 282.95 528.87 278.06 C 529.45 274.53 532.06 271.42 535.54 270.49 M 535.50 272.14 C 533.15 273.13 531.96 275.66 531.65 278.06 C 531.11 282.08 531.80 286.43 534.14 289.82 C 535.87 292.42 539.44 293.84 542.39 292.53 C 545.27 291.27 546.26 287.88 546.47 285.00 C 546.67 280.87 545.83 276.24 542.69 273.30 C 540.81 271.48 537.85 271.03 535.50 272.14 Z" />
<path fill="#6c3f21" opacity="1.00" d=" M 189.40 272.19 C 193.80 270.67 199.39 271.86 201.90 276.04 C 204.30 279.98 204.97 285.47 202.37 289.48 C 199.38 293.56 193.45 294.83 188.83 293.09 C 184.24 291.15 182.37 285.66 182.63 281.00 C 182.76 277.01 185.50 273.25 189.40 272.19 M 190.57 273.44 C 187.41 274.44 185.40 277.76 185.51 281.01 C 185.57 284.74 186.60 289.07 189.95 291.22 C 193.65 293.65 199.35 291.69 200.62 287.41 C 201.72 283.27 200.68 278.48 197.75 275.30 C 195.99 273.32 193.07 272.54 190.57 273.44 Z" />
<path fill="#6c3f21" opacity="1.00" d=" M 466.38 271.80 C 469.32 272.04 472.34 272.04 475.19 272.92 C 476.25 273.33 477.65 274.07 477.69 275.39 C 477.84 278.06 476.57 280.54 475.72 283.01 C 476.36 285.27 477.15 287.53 477.24 289.90 C 477.10 292.30 475.35 294.72 472.87 295.06 C 470.14 295.55 467.36 295.35 464.62 295.34 C 465.06 287.48 465.83 279.65 466.38 271.80 M 469.09 273.09 C 468.83 276.12 468.61 279.16 468.40 282.19 C 470.10 282.22 471.81 282.25 473.53 282.28 C 474.19 280.04 474.83 277.76 475.00 275.42 C 473.07 274.54 471.07 273.83 469.09 273.09 M 468.18 283.29 C 467.91 286.86 467.70 290.43 467.51 294.00 C 469.43 293.94 471.36 293.88 473.29 293.84 C 473.71 291.12 474.81 288.27 473.91 285.54 C 472.07 284.61 470.09 284.02 468.18 283.29 Z" />
<path fill="#6c3f21" opacity="1.00" d=" M 489.53 272.56 C 493.76 271.36 498.90 272.92 501.06 276.92 C 503.71 281.89 503.35 288.48 500.03 293.05 C 496.67 297.75 489.00 298.02 485.17 293.77 C 482.10 290.45 481.76 285.53 482.41 281.26 C 482.97 277.37 485.59 273.59 489.53 272.56 M 489.57 274.35 C 487.03 275.70 485.82 278.57 485.32 281.27 C 484.73 284.68 484.85 288.39 486.48 291.52 C 487.81 294.04 490.83 295.90 493.71 295.04 C 496.94 294.06 498.89 290.81 499.49 287.65 C 500.10 284.28 500.06 280.61 498.52 277.49 C 496.96 274.34 492.76 272.53 489.57 274.35 Z" />
<path fill="#6c3f21" opacity="1.00" d=" M 119.38 273.27 C 122.46 273.87 125.68 274.16 128.56 275.52 C 130.39 276.34 131.30 278.69 130.58 280.55 C 129.63 281.94 128.46 283.17 127.38 284.47 C 128.21 286.00 129.10 287.51 129.70 289.15 C 130.15 291.99 127.84 295.09 124.90 295.22 C 121.97 295.50 119.04 295.07 116.13 294.82 C 117.38 287.67 118.54 280.49 119.38 273.27 M 122.07 275.48 C 121.65 278.24 121.25 281.01 120.92 283.79 C 122.71 283.29 124.54 282.97 126.35 282.52 C 127.22 280.83 127.75 278.99 128.52 277.25 C 126.38 276.63 124.22 276.05 122.07 275.48 M 120.33 284.39 C 120.01 287.78 119.78 291.19 119.68 294.60 C 121.52 294.11 123.40 293.77 125.18 293.08 C 127.09 291.66 127.06 288.87 126.38 286.81 C 124.50 285.68 122.39 285.07 120.33 284.39 Z" />
<path fill="#6c3f21" opacity="1.00" d=" M 506.67 272.44 C 512.11 277.70 515.91 284.31 520.71 290.11 C 520.52 284.17 520.52 278.21 521.59 272.35 C 522.78 280.31 522.37 288.39 521.97 296.40 C 516.98 290.57 512.73 284.18 508.23 277.98 C 508.33 284.26 508.62 290.60 507.50 296.82 C 505.42 288.84 506.61 280.57 506.67 272.44 Z" />
<path fill="#6c3f21" opacity="1.00" d=" M 174.47 275.18 C 175.00 275.18 176.06 275.18 176.59 275.18 C 176.85 282.47 177.52 289.73 177.91 297.01 C 172.87 292.10 168.11 286.87 162.62 282.43 C 162.70 287.52 163.20 292.58 163.78 297.63 C 163.20 297.67 162.06 297.75 161.48 297.79 C 161.47 290.66 160.89 283.54 160.68 276.42 C 166.05 280.74 170.66 285.90 175.78 290.51 C 175.60 285.38 175.11 280.27 174.47 275.18 Z" />
</g>
<g id="#fd8204ff">
<path fill="#fd8204" opacity="1.00" d=" M 143.52 67.96 C 146.64 65.01 149.81 62.12 153.04 59.29 C 168.97 76.71 184.41 94.58 200.16 112.17 C 196.79 115.22 193.32 118.15 189.82 121.05 C 174.30 103.43 158.95 85.67 143.52 67.96 Z" />
<path fill="#fd8204" opacity="1.00" d=" M 129.21 81.74 C 132.25 78.68 135.41 75.75 138.65 72.92 C 154.28 90.57 170.18 107.99 185.57 125.85 C 182.22 128.83 178.80 131.73 175.26 134.48 C 159.84 116.96 144.45 99.41 129.21 81.74 Z" />
<path fill="#fd8204" opacity="1.00" d=" M 521.36 83.86 C 528.68 82.98 536.15 83.26 543.34 84.90 C 544.74 85.25 546.18 85.63 547.41 86.42 C 548.32 87.59 548.96 88.94 549.70 90.23 C 545.08 89.91 540.56 88.92 536.02 88.09 C 531.16 87.18 526.21 87.28 521.29 87.17 C 521.31 86.34 521.34 84.69 521.36 83.86 Z" />
<path fill="#fd8204" opacity="1.00" d=" M 114.66 94.38 C 117.81 91.53 120.96 88.67 124.13 85.83 C 132.31 94.67 140.17 103.80 148.21 112.77 C 155.89 121.49 163.75 130.04 171.25 138.91 C 167.85 141.86 164.40 144.75 160.89 147.57 C 151.91 137.71 143.33 127.49 134.51 117.49 C 127.90 109.78 120.96 102.35 114.66 94.38 Z" />
<path fill="#fd8204" opacity="1.00" d=" M 504.39 92.23 C 520.62 90.54 537.25 90.54 553.11 94.80 C 553.14 95.75 553.20 97.67 553.23 98.62 C 537.04 94.94 520.32 94.30 503.81 95.53 C 503.95 94.71 504.24 93.05 504.39 92.23 Z" />
<path fill="#fd8204" opacity="1.00" d=" M 483.88 105.75 C 504.85 100.61 526.95 100.92 548.06 105.11 C 551.23 105.75 554.46 106.25 557.51 107.37 C 559.50 107.83 559.97 110.03 560.97 111.52 C 556.83 111.14 552.78 110.22 548.74 109.30 C 527.42 104.46 505.08 104.93 483.74 109.42 C 483.78 108.51 483.85 106.67 483.88 105.75 Z" />
<path fill="#fd8204" opacity="1.00" d=" M 478.13 120.25 C 502.16 114.22 527.38 114.65 551.72 118.52 C 554.33 119.00 557.06 119.26 559.51 120.40 C 560.79 121.37 561.49 122.89 562.42 124.18 C 555.85 123.88 549.49 122.14 543.00 121.30 C 521.37 118.36 499.19 119.10 477.92 124.10 C 477.99 122.82 478.06 121.53 478.13 120.25 Z" />
<path fill="#fd8204" opacity="1.00" d=" M 478.71 125.67 C 503.68 119.71 529.86 120.00 555.02 124.64 C 556.84 125.05 558.78 125.33 560.40 126.33 C 561.21 127.45 561.87 128.66 562.56 129.86 C 559.30 129.55 556.07 129.04 552.87 128.39 C 532.98 124.39 512.40 124.04 492.34 127.04 C 487.53 127.77 482.75 128.74 477.93 129.47 C 478.18 128.20 478.44 126.93 478.71 125.67 Z" />
<path fill="#fd8204" opacity="1.00" d=" M 478.27 132.15 C 488.78 128.59 499.92 127.44 510.98 127.46 C 528.20 127.15 546.15 126.48 562.39 133.19 C 560.44 138.69 560.56 144.58 560.91 150.32 C 577.81 151.06 594.66 152.77 611.56 153.63 C 611.56 155.98 611.57 158.33 611.61 160.69 C 591.68 160.83 571.74 160.70 551.81 160.76 C 551.79 157.42 551.77 154.08 551.74 150.74 C 553.06 150.55 554.40 150.37 555.74 150.19 C 555.67 144.84 555.49 139.50 555.45 134.16 C 531.50 131.65 507.05 130.42 483.29 135.16 C 483.29 143.17 483.28 151.18 482.95 159.18 C 479.79 160.35 476.48 161.18 473.09 161.07 C 460.47 160.98 447.86 160.98 435.24 161.02 C 435.05 159.56 434.87 158.11 434.69 156.65 C 430.61 156.93 426.51 157.71 422.98 159.89 C 410.99 166.44 399.11 173.22 386.92 179.40 C 386.61 170.41 386.67 161.41 386.89 152.41 C 403.43 152.51 419.98 152.54 436.52 152.40 C 436.69 153.91 436.85 155.43 437.03 156.94 C 450.75 157.06 464.48 157.00 478.20 156.98 C 478.28 148.70 478.24 140.43 478.27 132.15 Z" />
<path fill="#fd8204" opacity="1.00" d=" M 490.08 138.40 C 495.29 138.49 500.51 138.50 505.72 138.43 C 505.75 140.23 505.80 142.04 505.85 143.84 C 502.37 143.96 498.89 144.04 495.42 144.14 C 495.47 148.24 495.47 152.34 495.43 156.44 C 493.61 156.36 491.79 156.28 489.99 156.21 C 489.99 150.27 489.97 144.33 490.08 138.40 Z" />
<path fill="#fd8204" opacity="1.00" d=" M 498.02 152.26 C 514.42 151.51 530.83 150.83 547.24 150.57 C 547.23 153.97 547.22 157.36 547.18 160.76 C 530.80 160.74 514.41 160.75 498.02 160.75 C 498.01 157.92 498.01 155.09 498.02 152.26 Z" />
<path fill="#fd8204" opacity="1.00" d=" M 133.47 163.93 C 136.52 160.96 139.65 158.07 142.84 155.24 C 158.67 172.75 174.28 190.46 189.86 208.19 C 186.54 211.27 183.11 214.22 179.53 216.98 C 164.20 199.27 148.64 181.77 133.47 163.93 Z" />
<path fill="#fd8204" opacity="1.00" d=" M 436.04 194.75 C 455.78 182.51 475.28 169.89 495.14 157.85 C 495.31 168.06 495.40 178.28 495.07 188.49 C 475.37 190.35 455.71 192.64 436.04 194.75 Z" />
<path fill="#fd8204" opacity="1.00" d=" M 425.83 162.77 C 442.37 162.74 458.94 162.56 475.47 163.37 C 472.60 165.02 469.53 166.69 466.11 166.52 C 452.67 166.32 439.23 166.01 425.79 165.98 C 425.80 165.18 425.82 163.58 425.83 162.77 Z" />
<path fill="#fd8204" opacity="1.00" d=" M 498.03 164.79 C 514.42 164.71 530.81 164.70 547.20 164.80 C 547.31 174.85 547.26 184.91 547.24 194.96 C 530.87 192.58 514.45 190.52 498.09 188.07 C 497.93 180.31 497.98 172.55 498.03 164.79 Z" />
<path fill="#fd8204" opacity="1.00" d=" M 551.80 164.80 C 571.73 164.75 591.66 164.60 611.59 164.88 C 611.50 170.87 611.50 176.86 611.59 182.85 C 591.70 186.95 571.81 191.10 551.90 195.08 C 551.61 184.99 551.73 174.89 551.80 164.80 Z" />
<path fill="#fd8204" opacity="1.00" d=" M 416.96 167.65 C 426.56 166.29 436.28 167.21 445.94 167.37 C 452.97 167.65 460.02 167.20 467.03 167.98 C 465.34 169.16 463.66 170.38 461.77 171.21 C 459.23 171.77 456.61 171.48 454.04 171.40 C 444.06 170.80 434.07 170.44 424.08 170.04 C 421.49 170.07 419.09 169.01 416.96 167.65 Z" />
<path fill="#fd8204" opacity="1.00" d=" M 118.92 177.46 C 122.12 174.59 125.32 171.71 128.61 168.93 C 144.16 186.63 160.02 204.05 175.49 221.82 C 172.10 224.79 168.65 227.69 165.11 230.47 C 155.38 219.65 145.93 208.59 136.31 197.67 C 130.52 190.93 124.43 184.44 118.92 177.46 Z" />
<path fill="#fd8204" opacity="1.00" d=" M 409.94 171.00 C 418.62 170.76 427.29 171.04 435.95 171.62 C 443.59 172.16 451.26 172.23 458.86 173.19 C 456.67 174.73 454.52 176.45 451.97 177.36 C 449.67 177.82 447.33 177.50 445.03 177.36 C 433.40 176.24 421.72 175.64 410.10 174.38 C 410.06 173.53 409.98 171.85 409.94 171.00 Z" />
<path fill="#fd8204" opacity="1.00" d=" M 401.68 174.89 C 410.97 175.41 420.22 176.45 429.50 177.21 C 436.08 177.77 442.73 177.99 449.19 179.56 C 447.40 180.55 445.66 181.61 443.75 182.32 C 441.58 182.85 439.33 182.44 437.14 182.27 C 425.35 180.84 413.54 179.52 401.74 178.14 C 401.72 177.33 401.69 175.70 401.68 174.89 Z" />
<path fill="#fd8204" opacity="1.00" d=" M 394.10 179.01 C 401.42 178.57 408.64 180.05 415.88 180.83 C 424.20 181.94 432.66 182.35 440.82 184.45 C 438.58 185.89 436.45 187.65 433.89 188.49 C 430.89 188.78 427.94 187.84 425.02 187.33 C 416.35 185.44 407.55 184.24 398.87 182.47 C 396.68 182.30 395.52 180.38 394.10 179.01 Z" />
<path fill="#fd8204" opacity="1.00" d=" M 104.60 190.70 C 107.57 187.59 110.70 184.62 113.92 181.76 C 123.19 191.93 132.20 202.34 141.39 212.58 C 147.84 220.02 154.63 227.16 160.89 234.77 C 157.57 237.65 154.22 240.51 150.85 243.35 C 135.21 226.00 120.03 208.23 104.60 190.70 Z" />
<path fill="#fd8204" opacity="1.00" d=" M 387.13 183.16 C 392.60 182.63 398.13 182.95 403.48 184.25 C 412.84 186.33 422.37 187.61 431.63 190.10 C 429.78 191.33 428.00 192.74 425.90 193.51 C 423.97 193.79 422.04 193.29 420.15 192.98 C 409.21 190.68 398.27 188.43 387.28 186.41 C 387.22 185.32 387.17 184.24 387.13 183.16 Z" />
</g>
<g id="#6c3f21fe">
<path fill="#6c3f21" opacity="1.00" d=" M 303.29 167.70 C 305.24 170.09 306.83 172.74 308.08 175.56 C 308.92 173.22 309.79 170.89 310.65 168.56 C 311.15 168.46 312.17 168.28 312.68 168.18 C 312.83 172.03 312.32 175.84 311.90 179.65 C 311.48 177.68 311.17 175.69 310.81 173.72 C 309.74 175.44 308.73 177.20 307.57 178.87 C 306.75 178.02 305.95 177.16 305.18 176.28 C 304.84 176.93 304.52 177.57 304.20 178.22 C 303.73 178.40 302.79 178.75 302.33 178.92 C 302.49 175.17 302.65 171.41 303.29 167.70 Z" />
<path fill="#6c3f21" opacity="1.00" d=" M 21.72 225.58 C 27.66 220.94 34.65 217.96 41.40 214.74 C 39.41 221.29 36.73 227.61 34.77 234.18 C 39.58 231.71 44.25 228.89 49.42 227.19 C 43.80 232.32 36.62 235.14 29.95 238.57 C 31.95 231.84 34.73 225.39 36.92 218.73 C 31.97 221.26 27.25 224.44 21.72 225.58 Z" />
<path fill="#6c3f21" opacity="1.00" d=" M 394.74 236.80 C 398.49 235.23 403.27 235.84 406.13 238.87 C 407.69 240.81 408.51 243.22 409.51 245.48 C 408.91 245.47 407.70 245.47 407.10 245.46 C 406.14 243.29 405.61 240.73 403.83 239.06 C 400.34 237.06 396.11 238.96 393.23 241.21 C 390.12 243.71 387.16 247.53 387.87 251.75 C 389.33 254.48 391.84 256.42 393.92 258.66 C 391.78 257.67 389.48 256.87 387.68 255.31 C 385.30 252.85 384.66 248.96 385.88 245.80 C 387.41 241.75 390.75 238.44 394.74 236.80 Z" />
<path fill="#6c3f21" opacity="1.00" d=" M 398.04 265.01 C 402.98 258.83 407.86 252.59 413.06 246.61 C 415.78 248.84 418.34 251.27 420.57 254.01 C 418.20 252.84 415.90 251.52 413.63 250.17 C 412.10 252.06 410.58 253.95 409.06 255.85 C 410.69 257.75 412.28 259.69 413.87 261.64 C 411.56 260.52 409.31 259.31 407.04 258.12 C 405.30 260.29 403.58 262.47 401.87 264.66 C 403.73 266.75 405.57 268.85 407.26 271.08 C 403.98 269.38 400.93 267.29 398.04 265.01 Z" />
<path fill="#6c3f21" opacity="1.00" d=" M 51.55 263.89 C 56.07 258.35 60.83 253.00 65.33 247.44 C 68.14 249.75 70.83 252.23 73.22 254.98 C 70.75 253.78 68.35 252.42 65.98 251.03 C 64.57 252.64 63.17 254.25 61.77 255.87 C 63.49 257.79 65.22 259.72 66.91 261.67 C 64.58 260.50 62.26 259.31 59.93 258.14 C 58.31 260.03 56.70 261.93 55.11 263.85 C 56.91 265.89 58.68 267.96 60.33 270.14 C 57.25 268.27 54.37 266.12 51.55 263.89 Z" />
<path fill="#6c3f21" opacity="1.00" d=" M 228.82 256.47 C 233.54 262.32 238.66 268.18 241.07 275.44 C 236.52 272.57 233.89 267.81 230.81 263.58 C 230.61 268.82 230.90 274.06 231.14 279.30 C 226.67 276.30 222.33 273.12 217.86 270.12 C 219.94 275.09 223.02 279.85 222.96 285.43 C 218.95 278.74 216.65 271.22 213.86 263.98 C 218.97 267.46 223.93 271.17 229.20 274.43 C 229.08 268.44 228.71 262.46 228.82 256.47 Z" />
<path fill="#6c3f21" opacity="1.00" d=" M 142.42 276.24 C 147.24 274.82 153.43 276.80 155.33 281.76 C 157.13 286.53 156.53 292.90 152.25 296.18 C 147.46 299.38 139.76 298.65 136.56 293.53 C 133.19 287.63 135.09 278.00 142.42 276.24 M 142.47 278.15 C 137.59 280.74 137.23 287.51 138.84 292.20 C 140.61 297.09 147.95 298.18 151.15 294.12 C 153.61 290.60 153.83 285.77 152.38 281.80 C 150.99 277.95 146.03 276.21 142.47 278.15 Z" />
</g>
<g id="#6b3e21fc">
<path fill="#6b3e21" opacity="1.00" d=" M 649.50 167.41 C 651.16 170.17 652.81 172.96 654.10 175.92 C 655.39 173.04 656.70 170.15 658.30 167.42 C 658.72 171.45 658.75 175.50 658.56 179.54 C 657.93 177.78 657.32 176.01 656.75 174.23 C 655.63 176.01 654.54 177.80 653.36 179.54 C 652.76 178.01 652.13 176.49 651.61 174.94 C 651.26 173.85 650.89 172.76 650.55 171.67 C 650.29 174.31 650.06 176.95 649.82 179.60 C 648.95 175.59 648.84 171.46 649.50 167.41 Z" />
<path fill="#6b3e21" opacity="1.00" d=" M 364.20 215.28 C 371.67 212.60 378.73 208.61 386.64 207.31 C 384.89 208.98 383.21 210.85 380.89 211.74 C 375.43 214.05 369.84 216.03 364.28 218.09 C 364.26 217.39 364.22 215.99 364.20 215.28 Z" />
</g>
<g id="#37201083">
<path fill="#372010" opacity="0.51" d=" M 650.55 171.67 C 650.89 172.76 651.26 173.85 651.61 174.94 C 651.15 176.54 650.47 178.07 649.82 179.60 C 650.06 176.95 650.29 174.31 650.55 171.67 Z" />
</g>
<g id="#683d20f6">
<path fill="#683d20" opacity="0.96" d=" M 365.16 202.11 C 371.67 201.41 378.46 200.87 384.68 203.37 C 378.16 204.26 371.56 203.43 365.16 202.11 Z" />
</g>
<g id="#6b3f21fd">
<path fill="#6b3f21" opacity="1.00" d=" M 584.80 246.41 C 592.65 249.80 599.99 254.20 607.28 258.64 C 606.65 259.03 605.40 259.80 604.78 260.18 C 602.10 258.69 599.42 257.20 596.75 255.71 C 595.07 257.09 593.39 258.46 591.73 259.85 C 593.02 262.93 594.37 265.99 595.71 269.05 C 594.99 269.25 594.28 269.45 593.58 269.66 C 590.76 261.86 587.15 254.37 584.80 246.41 M 587.96 250.84 C 588.88 253.35 589.83 255.85 590.78 258.35 C 592.10 257.13 593.43 255.90 594.76 254.68 C 592.50 253.38 590.23 252.10 587.96 250.84 Z" />
</g>
</svg>
